# xmcd
#
# Track frame offsets:
#	150
#	10978
#	24565
#	37404
#	54748
#	67316
#
# Disc length: 1059
#
# Revision: 1
# Processed by: cddbd v1.5.1PL0 Copyright (c) Steve Scherf et al.
# Submitted via: CDex 1.51
# Normalized: r0:TRMNUM
#
DISCID=58042106
DTITLE=CASSA BLANCA Songlines - Songlines
DYEAR=1998
DGENRE=Country
TTITLE0=Old Chunk Of Coal
TTITLE1=I Wanna Be Free
TTITLE2=Live Forever
TTITLE3=Songlines
TTITLE4=Listen To A Country Song
TTITLE5=High Lonsesome Sound
EXTD=YEAR: 1998
EXTT0=
EXTT1=
EXTT2=
EXTT3=
EXTT4=
EXTT5=
PLAYORDER=
